<svg width="102" height="35" viewBox="0 0 102 35" fill="none" xmlns="http://www.w3.org/2000/svg">
<path d="M92.4883 0.989136C95.9416 -0.271651 97.8798 -0.386522 101.333 0.989136V33.165C97.8773 34.269 95.9429 34.3485 92.4883 33.165V0.989136Z" fill="black"/>
<path d="M88.075 24.1362H70.3864C70.5454 25.5702 70.9284 26.6383 71.5353 27.3406C72.388 28.3503 73.5007 28.8551 74.8736 28.8551C75.7407 28.8551 76.5644 28.6356 77.3448 28.1966C77.8217 27.9186 78.3347 27.4284 78.8839 26.7261C79.9171 25.4046 87.3163 25.7457 87.5764 27.5382C86.2469 29.8793 84.6428 31.562 82.7641 32.5862C80.8854 33.5958 78.1902 34.1007 74.6785 34.1007C71.6293 34.1007 69.2303 33.669 67.4817 32.8057C65.7331 31.9278 64.2807 30.5451 63.1246 28.6575C61.9829 26.7554 61.4121 24.524 61.4121 21.9634C61.4121 18.32 62.561 15.3716 64.8588 13.1183C67.171 10.8649 70.3575 9.73828 74.4184 9.73828C77.7133 9.73828 80.3146 10.2431 82.2221 11.2527C84.1297 12.2623 85.5821 13.7255 86.5792 15.6423C87.5764 17.5591 88.075 20.0539 88.075 23.1266V24.1362ZM79.1006 19.8563C78.9272 18.1298 78.4648 16.8934 77.7133 16.1471C76.9763 15.4009 76.0008 15.0278 74.7869 15.0278C73.3851 15.0278 72.2651 15.5911 71.4269 16.7178C70.8922 17.4201 70.5526 18.4663 70.4081 19.8563H79.1006Z" fill="black"/>
<path d="M31.8145 21.9853C31.8145 18.4297 32.9995 15.5033 35.3695 13.2061C37.7395 10.8942 40.9405 9.73828 44.9725 9.73828C49.5825 9.73828 53.0653 11.0917 55.4208 13.7987C57.314 15.9789 58.2605 18.6638 58.2605 21.8536C58.2605 25.4385 57.0827 28.3795 54.7272 30.6768C52.386 32.9594 49.1417 34.1007 44.9941 34.1007C41.2946 34.1007 38.3031 33.1496 36.0198 31.2474C33.2162 28.8916 31.8145 25.8043 31.8145 21.9853ZM40.6587 21.9634C40.6587 24.0411 41.0706 25.5775 41.8943 26.5725C42.7325 27.5674 43.7802 28.0649 45.0375 28.0649C46.3092 28.0649 47.3497 27.5748 48.159 26.5944C48.9827 25.6141 49.3946 24.0411 49.3946 21.8756C49.3946 19.8563 48.9827 18.3566 48.159 17.3762C47.3353 16.3812 46.3164 15.8837 45.1025 15.8837C43.8164 15.8837 42.7542 16.3886 41.916 17.3982C41.0778 18.3931 40.6587 19.9149 40.6587 21.9634Z" fill="black"/>
<path d="M27.6166 32.8893C23.2935 34.1279 20.897 34.216 17.4284 32.8893L0 3.76415C4.11602 1.36811 6.35108 1.12029 10.1232 3.76415L27.6166 32.8893ZM0 32.8893V6.52961L8.34569 20.3788V32.8893C5.40954 34.1135 3.62548 34.2711 0 32.8893ZM27.6166 3.76415V30.1238L19.271 16.2087V3.76415C22.7068 1.62307 24.5297 1.58961 27.6166 3.76415Z" fill="black"/>
</svg>
